<?xml version="1.0" encoding="UTF-8"?>
<svg version="1.1" xmlns="http://www.w3.org/2000/svg" width="78" height="78">
<path d="M0 0 C9.30410268 6.76948249 15.16016484 15.17405578 17.49609375 26.4921875 C18.70087879 38.07455281 16.52939098 48.14944939 9.49609375 57.4921875 C0.64345974 67.54112341 -8.19962822 71.52093244 -21.35546875 72.4765625 C-32.58006529 72.53226769 -42.3112514 67.5844984 -50.19140625 59.83203125 C-57.11322145 52.23533906 -60.4252869 43.59413584 -60.5390625 33.31640625 C-59.99285934 21.97936026 -56.63340503 12.60663165 -48.50390625 4.4921875 C-34.23813863 -6.77601852 -16.06378144 -9.67335357 0 0 Z " fill="#424192" transform="translate(60.50390625,5.5078125)"/>
<path d="M0 0 C9.30410268 6.76948249 15.16016484 15.17405578 17.49609375 26.4921875 C18.70087879 38.07455281 16.52939098 48.14944939 9.49609375 57.4921875 C0.64345974 67.54112341 -8.19962822 71.52093244 -21.35546875 72.4765625 C-32.58006529 72.53226769 -42.3112514 67.5844984 -50.19140625 59.83203125 C-57.11322145 52.23533906 -60.4252869 43.59413584 -60.5390625 33.31640625 C-59.99285934 21.97936026 -56.63340503 12.60663165 -48.50390625 4.4921875 C-34.23813863 -6.77601852 -16.06378144 -9.67335357 0 0 Z M-49.50390625 10.4921875 C-55.90439034 19.04820652 -58.72039346 27.82097692 -57.50390625 38.4921875 C-55.14201464 49.31163111 -49.89244185 57.87635235 -40.72265625 64.20703125 C-31.61843261 69.48042839 -22.48189011 71.21188021 -12.20703125 68.6796875 C-2.29503411 65.32915326 6.64682143 58.99676125 11.49609375 49.4921875 C15.65235697 39.745841 16.23648508 29.05741829 12.43359375 19.1171875 C8.39338221 10.59415698 2.86153188 4.79720829 -5.50390625 0.4921875 C-6.65890625 -0.1059375 -7.81390625 -0.7040625 -9.00390625 -1.3203125 C-24.41667783 -6.62035648 -38.98518828 -1.09653798 -49.50390625 10.4921875 Z " fill="#ED8236" transform="translate(60.50390625,5.5078125)"/>
<path d="M0 0 C-0.57621094 0.79857422 -0.57621094 0.79857422 -1.1640625 1.61328125 C-2.30402638 4.09281731 -2.30402638 4.09281731 -1.0234375 6.98046875 C-0.47945312 8.03878906 0.06453125 9.09710938 0.625 10.1875 C1.15351562 11.25355469 1.68203125 12.31960937 2.2265625 13.41796875 C3.7376517 16.13619319 3.7376517 16.13619319 6.2109375 16.86328125 C7.09652344 16.93095703 7.09652344 16.93095703 8 17 C8 17.99 8 18.98 8 20 C6.75823305 20.70226141 5.50614401 21.38629109 4.25 22.0625 C3.55390625 22.44535156 2.8578125 22.82820313 2.140625 23.22265625 C-0.36140628 24.1312406 -1.5332355 23.88336837 -4 23 C-4 21 -4 21 -2 19 C-2.32041397 16.39719432 -2.32041397 16.39719432 -3 14 C-3.94875 14.495 -4.8975 14.99 -5.875 15.5 C-9 17 -9 17 -11 17 C-10.34 18.65 -9.68 20.3 -9 22 C-7.68 22 -6.36 22 -5 22 C-4.67 22.99 -4.34 23.98 -4 25 C-5.43294498 25.84114171 -6.87154405 26.67265687 -8.3125 27.5 C-9.11300781 27.9640625 -9.91351563 28.428125 -10.73828125 28.90625 C-13 30 -13 30 -16 30 C-16 29.01 -16 28.02 -16 27 C-15.34 27 -14.68 27 -14 27 C-14.433125 26.08476563 -14.86625 25.16953125 -15.3125 24.2265625 C-16.1478125 22.44378906 -16.1478125 22.44378906 -17 20.625 C-17.556875 19.44164063 -18.11375 18.25828125 -18.6875 17.0390625 C-20 14 -20 14 -20 12 C-21.32 12.33 -22.64 12.66 -24 13 C-24.33 12.01 -24.66 11.02 -25 10 C-23.56705502 9.15885829 -22.12845595 8.32734313 -20.6875 7.5 C-19.88699219 7.0359375 -19.08648437 6.571875 -18.26171875 6.09375 C-16 5 -16 5 -13 5 C-13 5.99 -13 6.98 -13 8 C-13.66 8 -14.32 8 -15 8 C-14.67 9.98 -14.34 11.96 -14 14 C-11.36 12.68 -8.72 11.36 -6 10 C-6.33 8.68 -6.66 7.36 -7 6 C-8.65 6 -10.3 6 -12 6 C-12 5.01 -12 4.02 -12 3 C-10.75823305 2.29773859 -9.50614401 1.61370891 -8.25 0.9375 C-7.55390625 0.55464844 -6.8578125 0.17179687 -6.140625 -0.22265625 C-3.63859372 -1.1312406 -2.4667645 -0.88336837 0 0 Z " fill="#EC8238" transform="translate(33,32)"/>
<path d="M0 0 C0 0.66 0 1.32 0 2 C-0.66 2 -1.32 2 -2 2 C0.93938102 9.77213198 0.93938102 9.77213198 5 17 C7.6273026 16.00864359 7.6273026 16.00864359 10 14 C10.41725678 10.37400578 10.41725678 10.37400578 10 7 C11.875 7.25 11.875 7.25 14 8 C15.67920577 10.23894103 15.99936143 11.60727828 16.00390625 14.40234375 C14.7152362 17.73684017 12.8986105 18.48730242 9.7265625 19.92773438 C8.68628906 20.36569336 8.68628906 20.36569336 7.625 20.8125 C6.93921875 21.12380859 6.2534375 21.43511719 5.546875 21.75585938 C2.55267901 23.08111149 0.30580489 24 -3 24 C-3 23.01 -3 22.02 -3 21 C-2.34 21 -1.68 21 -1 21 C-1.433125 20.08476563 -1.86625 19.16953125 -2.3125 18.2265625 C-3.1478125 16.44378906 -3.1478125 16.44378906 -4 14.625 C-4.556875 13.44164062 -5.11375 12.25828125 -5.6875 11.0390625 C-7 8 -7 8 -7 6 C-8.32 6.33 -9.64 6.66 -11 7 C-11.33 6.01 -11.66 5.02 -12 4 C-10.56988027 3.13353333 -9.13059381 2.28218171 -7.6875 1.4375 C-6.48673828 0.72400391 -6.48673828 0.72400391 -5.26171875 -0.00390625 C-3 -1 -3 -1 0 0 Z " fill="#EC8238" transform="translate(57,20)"/>
<path d="M0 0 C0 0.66 0 1.32 0 2 C-0.66 2 -1.32 2 -2 2 C-1.37720331 3.58420129 -0.75166599 5.16732531 -0.125 6.75 C0.22304688 7.63171875 0.57109375 8.5134375 0.9296875 9.421875 C1.8646709 11.6740248 2.87780794 13.83649459 4 16 C5.32 16 6.64 16 8 16 C8.33 16.99 8.66 17.98 9 19 C7.56705502 19.84114171 6.12845595 20.67265687 4.6875 21.5 C3.88699219 21.9640625 3.08648437 22.428125 2.26171875 22.90625 C0 24 0 24 -3 24 C-2.731875 23.21625 -2.46375 22.4325 -2.1875 21.625 C-1.94262594 16.89076815 -3.6078203 14.24206703 -5.87109375 10.171875 C-7 8 -7 8 -7 6 C-8.32 6.33 -9.64 6.66 -11 7 C-11 5.68 -11 4.36 -11 3 C-9.73581754 2.30034557 -8.46334598 1.61565237 -7.1875 0.9375 C-6.47980469 0.55464844 -5.77210937 0.17179687 -5.04296875 -0.22265625 C-3 -1 -3 -1 0 0 Z " fill="#EC8238" transform="translate(45,26)"/>
<path d="M0 0 C0.99 0 1.98 0 3 0 C3 0.66 3 1.32 3 2 C4.65 2 6.3 2 8 2 C8.66 3.65 9.32 5.3 10 7 C4.375 10 4.375 10 1 10 C0.67 8.02 0.34 6.04 0 4 C0.66 4 1.32 4 2 4 C2 3.01 2 2.02 2 1 C1.34 0.67 0.68 0.34 0 0 Z " fill="#4A448E" transform="translate(18,36)"/>
<path d="M0 0 C0.66 0 1.32 0 2 0 C2 0.99 2 1.98 2 3 C2.66 3.66 3.32 4.32 4 5 C2.35 5.33 0.7 5.66 -1 6 C-1.33 5.01 -1.66 4.02 -2 3 C-1.34 2.34 -0.68 1.68 0 1 C0 0.67 0 0.34 0 0 Z " fill="#DA7B41" transform="translate(31,50)"/>
<path d="" fill="#DC7825" transform="translate(0,0)"/>
</svg>
